<svg xmlns="http://www.w3.org/2000/svg" width="100" height="100" viewBox="0 0 100 100">
  <g id="Groupe_8100" data-name="Groupe 8100" transform="translate(3701 -2391)">
    <g id="pere1">
      <circle id="Ellipse_3" data-name="Ellipse 3" cx="50" cy="50" r="50" transform="translate(-3701 2391)" fill="rgba(95,153,82,0.1)"/>
    </g>
    <g id="noun_Ecology_Car_1931849" data-name="noun_Ecology Car_1931849" transform="translate(-3496.977 2460.9)">
      <g id="Groupe_8055" data-name="Groupe 8055" transform="translate(-179 -45)">
        <g id="Groupe_8053" data-name="Groupe 8053">
          <g id="Groupe_8052" data-name="Groupe 8052">
            <path id="Tracé_3693" data-name="Tracé 3693" d="M15.5,5.1h0c12,12,9.7,26.9-4.3,34.4v-.1c.7-1,6.3-20.3,4.4-29.1A69.637,69.637,0,0,1,5,44.9L2.2,40.6c1-1.3,2-2.6,3-4.1C-3,24.8.9,11.5,15.5,5.1Z" fill="#5f9952"/>
          </g>
        </g>
        <g id="Groupe_8054" data-name="Groupe 8054">
          <path id="Tracé_3694" data-name="Tracé 3694" d="M37.7,37.3v1.9a1.155,1.155,0,0,0,1.2,1.2h5a1.155,1.155,0,0,0,1.2-1.2v-3a3.255,3.255,0,0,1-1.4.4A40.875,40.875,0,0,1,37.7,37.3Z" fill="#5f9952"/>
          <path id="Tracé_3695" data-name="Tracé 3695" d="M17.1,37.7v1.6a1.155,1.155,0,0,1-1.2,1.2H13.2A38.857,38.857,0,0,0,17.1,37.7Z" fill="#5f9952"/>
          <path id="Tracé_3696" data-name="Tracé 3696" d="M48.2,17.8l-1.7-.3a.919.919,0,0,0-1.1.8L45.1,20a53.478,53.478,0,0,0-3-10A3.448,3.448,0,0,0,40,8a50.525,50.525,0,0,0-20.2-.9,25.142,25.142,0,0,1,2,2.9,43.625,43.625,0,0,1,16.8,1,.693.693,0,0,1,.3.4,43.847,43.847,0,0,1,3,10.8,73.263,73.263,0,0,0-16.7-1.3,20.092,20.092,0,0,1-.8,6.4H31a1.6,1.6,0,0,1,0,3.2H23.9a1.884,1.884,0,0,1-.8-.2,24.1,24.1,0,0,1-3.8,5.4,115.116,115.116,0,0,0,24.2-.8,3.454,3.454,0,0,0,2.8-3.7c0-1.5-.1-2.9-.2-4.4-.1-1.7-.4-3.3-.6-4.9.1,0,.1.1.2.1l1.6.3a.919.919,0,0,0,1.1-.8l.5-2.7C49.1,18.4,48.7,17.9,48.2,17.8ZM40.4,31.4a2.7,2.7,0,1,1,2.7-2.7A2.689,2.689,0,0,1,40.4,31.4Z" fill="#5f9952"/>
        </g>
      </g>
    </g>
  </g>
</svg>
